<svg width="23" height="27" viewBox="0 0 23 27" fill="none" xmlns="http://www.w3.org/2000/svg">
<path d="M22.6138 10.2493C22.4266 8.30115 21.7381 6.43471 20.6154 4.83169C19.4927 3.22867 17.974 1.94371 16.2072 1.10192C14.4403 0.26014 12.4857 -0.109773 10.5334 0.0282039C8.58123 0.166181 6.698 0.807347 5.06716 1.88927C3.66609 2.82613 2.4899 4.06166 1.62308 5.50712C0.756271 6.95258 0.220352 8.57207 0.0538257 10.2493C-0.109531 11.9155 0.100058 13.5972 0.667386 15.1723C1.23471 16.7474 2.14555 18.1765 3.33383 19.3559L10.4005 26.4359C10.5244 26.5609 10.6719 26.6601 10.8344 26.7278C10.9969 26.7955 11.1711 26.8303 11.3472 26.8303C11.5232 26.8303 11.6974 26.7955 11.8599 26.7278C12.0224 26.6601 12.1699 26.5609 12.2938 26.4359L19.3338 19.3559C20.5221 18.1765 21.4329 16.7474 22.0003 15.1723C22.5676 13.5972 22.7772 11.9155 22.6138 10.2493ZM17.4672 17.4759L11.3338 23.6093L5.20049 17.4759C4.29661 16.572 3.60423 15.479 3.17312 14.2756C2.742 13.0722 2.58287 11.7882 2.70716 10.5159C2.83225 9.22407 3.24284 7.97615 3.90925 6.86239C4.57566 5.74863 5.48124 4.79688 6.56049 4.07593C7.97509 3.13625 9.63557 2.63499 11.3338 2.63499C13.0321 2.63499 14.6926 3.13625 16.1072 4.07593C17.1831 4.79409 18.0867 5.74164 18.753 6.85052C19.4192 7.95939 19.8316 9.20207 19.9605 10.4893C20.0888 11.7658 19.9317 13.055 19.5005 14.2633C19.0692 15.4717 18.3747 16.569 17.4672 17.4759ZM11.3338 5.40927C10.1471 5.40927 8.9871 5.76116 8.00041 6.42045C7.01371 7.07974 6.24468 8.01681 5.79055 9.11317C5.33642 10.2095 5.2176 11.4159 5.44911 12.5798C5.68063 13.7437 6.25207 14.8128 7.09119 15.6519C7.9303 16.491 8.9994 17.0625 10.1633 17.294C11.3272 17.5255 12.5336 17.4067 13.6299 16.9525C14.7263 16.4984 15.6634 15.7294 16.3226 14.7427C16.9819 13.756 17.3338 12.596 17.3338 11.4093C17.3303 9.81905 16.697 8.29497 15.5726 7.17052C14.4481 6.04606 12.924 5.41279 11.3338 5.40927ZM11.3338 14.7426C10.6746 14.7426 10.0301 14.5471 9.48193 14.1808C8.93376 13.8146 8.50652 13.294 8.25423 12.6849C8.00194 12.0758 7.93592 11.4056 8.06454 10.759C8.19316 10.1124 8.51063 9.51842 8.9768 9.05224C9.44298 8.58607 10.0369 8.2686 10.6835 8.13998C11.3301 8.01136 12.0004 8.07738 12.6094 8.32967C13.2185 8.58196 13.7391 9.0092 14.1054 9.55737C14.4717 10.1055 14.6672 10.75 14.6672 11.4093C14.6672 12.2933 14.316 13.1412 13.6908 13.7663C13.0657 14.3914 12.2179 14.7426 11.3338 14.7426Z" fill="white"/>
</svg>
