<svg width="30" height="30" viewBox="0 0 30 30" fill="none" xmlns="http://www.w3.org/2000/svg">
<path d="M24.3001 16.2502C24.0251 16.2502 23.7376 16.1627 23.4626 16.1002C22.9057 15.9775 22.3585 15.8146 21.8251 15.6127C21.2452 15.4017 20.6078 15.4127 20.0355 15.6435C19.4632 15.8742 18.9965 16.3085 18.7251 16.8627L18.4501 17.4252C17.2326 16.7479 16.1139 15.9067 15.1251 14.9252C14.1436 13.9365 13.3024 12.8177 12.6251 11.6002L13.1501 11.2502C13.7043 10.9788 14.1386 10.5121 14.3694 9.93981C14.6001 9.36752 14.6111 8.73009 14.4001 8.1502C14.2017 7.61573 14.0388 7.0687 13.9126 6.5127C13.8501 6.2377 13.8001 5.9502 13.7626 5.6627C13.6108 4.78223 13.1497 3.98488 12.4622 3.41425C11.7746 2.84362 10.906 2.53721 10.0126 2.5502H6.26263C5.72392 2.54514 5.19044 2.65622 4.69851 2.87586C4.20659 3.09551 3.76776 3.41857 3.41191 3.82305C3.05606 4.22754 2.79154 4.70394 2.63636 5.21984C2.48118 5.73574 2.43898 6.27902 2.51263 6.8127C3.17855 12.0494 5.57016 16.915 9.30969 20.641C13.0492 24.3669 17.9235 26.7408 23.1626 27.3877H23.6376C24.5594 27.3891 25.4494 27.0509 26.1376 26.4377C26.5331 26.084 26.849 25.6504 27.0645 25.1656C27.2799 24.6808 27.3901 24.1557 27.3876 23.6252V19.8752C27.3723 19.0069 27.0561 18.1709 26.4931 17.5098C25.93 16.8487 25.1549 16.4035 24.3001 16.2502ZM24.9251 23.7502C24.9249 23.9277 24.8869 24.1031 24.8136 24.2647C24.7403 24.4264 24.6335 24.5706 24.5001 24.6877C24.3605 24.8083 24.1971 24.8984 24.0206 24.9522C23.8441 25.006 23.6583 25.0224 23.4751 25.0002C18.7938 24.4 14.4454 22.2583 11.116 18.9131C7.78662 15.5678 5.66564 11.2094 5.08763 6.5252C5.06773 6.3421 5.08517 6.15686 5.13888 5.98069C5.19259 5.80452 5.28146 5.64106 5.40013 5.5002C5.51726 5.36687 5.66145 5.26 5.8231 5.18672C5.98475 5.11344 6.16015 5.07543 6.33763 5.0752H10.0876C10.3783 5.06873 10.6622 5.1638 10.8903 5.34404C11.1185 5.52428 11.2766 5.77841 11.3376 6.0627C11.3876 6.40437 11.4501 6.74187 11.5251 7.0752C11.6695 7.73413 11.8617 8.38168 12.1001 9.0127L10.3501 9.8252C10.2005 9.89385 10.0659 9.99138 9.95407 10.1122C9.84224 10.233 9.75538 10.3747 9.69846 10.5292C9.64155 10.6837 9.61572 10.8479 9.62244 11.0124C9.62916 11.1768 9.6683 11.3384 9.73763 11.4877C11.5366 15.3411 14.6342 18.4387 18.4876 20.2377C18.792 20.3627 19.1333 20.3627 19.4376 20.2377C19.5935 20.1819 19.7368 20.0958 19.8591 19.9842C19.9814 19.8726 20.0803 19.7378 20.1501 19.5877L20.9251 17.8377C21.5713 18.0688 22.2309 18.2608 22.9001 18.4127C23.2335 18.4877 23.571 18.5502 23.9126 18.6002C24.1969 18.6612 24.451 18.8194 24.6313 19.0475C24.8115 19.2757 24.9066 19.5595 24.9001 19.8502L24.9251 23.7502Z" fill="white"/>
</svg>
