<svg width="30" height="30" viewBox="0 0 30 30" fill="none" xmlns="http://www.w3.org/2000/svg">
<path d="M25.0001 5H5.00006C4.0055 5 3.05167 5.39509 2.34841 6.09835C1.64515 6.80161 1.25006 7.75544 1.25006 8.75V21.25C1.25006 22.2446 1.64515 23.1984 2.34841 23.9017C3.05167 24.6049 4.0055 25 5.00006 25H25.0001C25.9946 25 26.9484 24.6049 27.6517 23.9017C28.355 23.1984 28.7501 22.2446 28.7501 21.25V8.75C28.7501 7.75544 28.355 6.80161 27.6517 6.09835C26.9484 5.39509 25.9946 5 25.0001 5ZM26.2501 20.9375L20.1251 15.4375L26.2501 11.15V20.9375ZM3.75006 11.15L9.87506 15.4375L3.75006 20.9375V11.15ZM11.9751 16.9125L14.2876 18.525C14.4968 18.6702 14.7454 18.7479 15.0001 18.7479C15.2547 18.7479 15.5033 18.6702 15.7126 18.525L18.0251 16.9125L24.2751 22.5H5.75006L11.9751 16.9125ZM5.00006 7.5H25.0001C25.2322 7.50186 25.4592 7.56833 25.6557 7.69197C25.8522 7.81561 26.0104 7.99152 26.1126 8.2L15.0001 15.975L3.88756 8.2C3.9897 7.99152 4.14788 7.81561 4.34438 7.69197C4.54087 7.56833 4.76791 7.50186 5.00006 7.5Z" fill="white"/>
</svg>
