<svg width="48" height="48" viewBox="0 0 48 48" fill="none" xmlns="http://www.w3.org/2000/svg">
<path d="M13.5 45H34.5C36.4891 45 38.3968 44.2098 39.8033 42.8033C41.2098 41.3968 42 39.4891 42 37.5V28.5C42 26.5109 41.2098 24.6032 39.8033 23.1967C38.3968 21.7902 36.4891 21 34.5 21H13.5C11.5109 21 9.60322 21.7902 8.1967 23.1967C6.79018 24.6032 6 26.5109 6 28.5V37.5C6 39.4891 6.79018 41.3968 8.1967 42.8033C9.60322 44.2098 11.5109 45 13.5 45ZM9 28.5C9 27.3065 9.47411 26.1619 10.318 25.318C11.1619 24.4741 12.3065 24 13.5 24H34.5C35.6935 24 36.8381 24.4741 37.682 25.318C38.5259 26.1619 39 27.3065 39 28.5V37.5C39 38.6935 38.5259 39.8381 37.682 40.682C36.8381 41.5259 35.6935 42 34.5 42H13.5C12.3065 42 11.1619 41.5259 10.318 40.682C9.47411 39.8381 9 38.6935 9 37.5V28.5Z" fill="white"/>
<path d="M24 39C25.1867 39 26.3468 38.6481 27.3335 37.9888C28.3202 37.3295 29.0892 36.3925 29.5433 35.2961C29.9974 34.1997 30.1163 32.9933 29.8848 31.8295C29.6532 30.6656 29.0818 29.5965 28.2427 28.7574C27.4036 27.9182 26.3345 27.3468 25.1706 27.1153C24.0067 26.8838 22.8003 27.0026 21.7039 27.4567C20.6076 27.9108 19.6705 28.6799 19.0112 29.6666C18.3519 30.6533 18 31.8133 18 33C18 34.5913 18.6322 36.1174 19.7574 37.2426C20.8826 38.3679 22.4087 39 24 39ZM24 30C24.5934 30 25.1734 30.1759 25.6668 30.5056C26.1601 30.8352 26.5446 31.3038 26.7717 31.8519C26.9987 32.4001 27.0582 33.0033 26.9424 33.5853C26.8266 34.1672 26.5409 34.7018 26.1214 35.1213C25.7018 35.5409 25.1673 35.8266 24.5853 35.9424C24.0034 36.0581 23.4002 35.9987 22.852 35.7716C22.3038 35.5446 21.8353 35.1601 21.5056 34.6667C21.176 34.1734 21 33.5933 21 33C21 32.2044 21.3161 31.4413 21.8787 30.8787C22.4413 30.3161 23.2044 30 24 30ZM24 3C23.6022 3 23.2207 3.15804 22.9394 3.43934C22.6581 3.72064 22.5 4.10218 22.5 4.5V12.885L18.69 9.075C18.4031 8.82926 18.034 8.70085 17.6565 8.71543C17.2789 8.73002 16.9208 8.88651 16.6537 9.15366C16.3866 9.4208 16.2301 9.77891 16.2155 10.1564C16.2009 10.5339 16.3293 10.903 16.575 11.19L22.935 17.565C23.0733 17.6999 23.2363 17.8069 23.415 17.88C23.6001 17.9584 23.7991 17.9988 24 17.9988C24.201 17.9988 24.4 17.9584 24.585 17.88C24.7638 17.8069 24.9268 17.6999 25.065 17.565L31.5 11.19C31.7458 10.903 31.8742 10.5339 31.8596 10.1564C31.845 9.77891 31.6885 9.4208 31.4214 9.15366C31.1542 8.88651 30.7961 8.73002 30.4186 8.71543C30.0411 8.70085 29.672 8.82926 29.385 9.075L25.5 12.885V4.5C25.5 4.10218 25.342 3.72064 25.0607 3.43934C24.7794 3.15804 24.3979 3 24 3Z" fill="white"/>
</svg>
