<svg width="48" height="48" viewBox="0 0 48 48" fill="none" xmlns="http://www.w3.org/2000/svg">
<path d="M6 28.5V37.5C6 39.4891 6.79018 41.3968 8.1967 42.8033C9.60322 44.2098 11.5109 45 13.5 45H34.5C36.4891 45 38.3968 44.2098 39.8033 42.8033C41.2098 41.3968 42 39.4891 42 37.5V28.5C42 26.5109 41.2098 24.6032 39.8033 23.1967C38.3968 21.7902 36.4891 21 34.5 21H13.5C11.5109 21 9.60322 21.7902 8.1967 23.1967C6.79018 24.6032 6 26.5109 6 28.5ZM39 28.5V37.5C39 38.6935 38.5259 39.8381 37.682 40.682C36.8381 41.5259 35.6935 42 34.5 42H13.5C12.3065 42 11.1619 41.5259 10.318 40.682C9.47411 39.8381 9 38.6935 9 37.5V28.5C9 27.3065 9.47411 26.1619 10.318 25.318C11.1619 24.4741 12.3065 24 13.5 24H34.5C35.6935 24 36.8381 24.4741 37.682 25.318C38.5259 26.1619 39 27.3065 39 28.5Z" fill="white"/>
<path d="M24 38.9999C25.1867 38.9999 26.3467 38.648 27.3334 37.9887C28.3201 37.3294 29.0892 36.3924 29.5433 35.296C29.9974 34.1997 30.1162 32.9933 29.8847 31.8294C29.6532 30.6655 29.0818 29.5964 28.2426 28.7573C27.4035 27.9182 26.3344 27.3467 25.1705 27.1152C24.0067 26.8837 22.8003 27.0025 21.7039 27.4566C20.6076 27.9108 19.6705 28.6798 19.0112 29.6665C18.3519 30.6532 18 31.8132 18 32.9999C18 34.5912 18.6321 36.1173 19.7574 37.2425C20.8826 38.3678 22.4087 38.9999 24 38.9999ZM24 29.9999C24.5934 29.9999 25.1734 30.1759 25.6667 30.5055C26.1601 30.8351 26.5446 31.3037 26.7716 31.8519C26.9987 32.4 27.0581 33.0032 26.9424 33.5852C26.8266 34.1671 26.5409 34.7017 26.1213 35.1212C25.7018 35.5408 25.1672 35.8265 24.5853 35.9423C24.0033 36.058 23.4001 35.9986 22.852 35.7715C22.3038 35.5445 21.8352 35.16 21.5056 34.6666C21.176 34.1733 21 33.5933 21 32.9999C21 32.2043 21.3161 31.4412 21.8787 30.8786C22.4413 30.316 23.2044 29.9999 24 29.9999ZM25.065 3.43491C24.9256 3.29432 24.7597 3.18272 24.5769 3.10657C24.3941 3.03042 24.198 2.99121 24 2.99121C23.802 2.99121 23.6059 3.03042 23.4231 3.10657C23.2404 3.18272 23.0745 3.29432 22.935 3.43491L16.575 9.80991C16.2846 10.0904 16.1175 10.4747 16.1105 10.8784C16.1034 11.2821 16.257 11.672 16.5375 11.9624C16.818 12.2528 17.2023 12.4199 17.606 12.427C18.0097 12.434 18.3996 12.2804 18.69 11.9999L22.5 8.11491V16.4999C22.5 16.8977 22.658 17.2793 22.9393 17.5606C23.2207 17.8419 23.6022 17.9999 24 17.9999C24.3978 17.9999 24.7794 17.8419 25.0607 17.5606C25.342 17.2793 25.5 16.8977 25.5 16.4999V8.11491L29.31 11.9999C29.5894 12.277 29.9665 12.4333 30.36 12.4349C30.5699 12.4463 30.7798 12.4135 30.9762 12.3386C31.1726 12.2636 31.3511 12.1482 31.5 11.9999C31.7794 11.7189 31.9362 11.3387 31.9362 10.9424C31.9362 10.5461 31.7794 10.166 31.5 9.88491L25.065 3.43491Z" fill="white"/>
</svg>
