<svg xmlns="http://www.w3.org/2000/svg" width="60.75" height="81" viewBox="0 0 60.75 81"><defs><style>.a{fill:#fff;}.b{fill:#d81222;}.c{fill:#444b54;}</style></defs><g transform="translate(-8 -7)"><path class="a" d="M68.675,46.75A6.77,6.77,0,0,0,61.925,40H50.315a6.77,6.77,0,0,0-6.682,5.94L41,67h7.425V96.7h16.2V67h0a4.062,4.062,0,0,0,4.05-4.05Z" transform="translate(-10.725 -10.725)"/><path class="a" d="M28.55,36.25H17.75A6.77,6.77,0,0,0,11,43V57.85a5.426,5.426,0,0,0,4.05,5.2v21.8A4.062,4.062,0,0,0,19.1,88.9h8.1a4.062,4.062,0,0,0,4.05-4.05V63.25H35.3V43A6.77,6.77,0,0,0,28.55,36.25ZM23.15,16a6.75,6.75,0,1,0,6.75,6.75A6.75,6.75,0,0,0,23.15,16Zm35.1,27v0Z" transform="translate(-0.975 -2.925)"/><path class="b" d="M14.075,89.95a1.989,1.989,0,0,1-2.025-2.025V63.49A7.418,7.418,0,0,1,8,56.875V42.025a8.758,8.758,0,0,1,8.775-8.775h10.8a2.025,2.025,0,1,1,0,4.05h-10.8a4.7,4.7,0,0,0-4.725,4.725v14.85a3.268,3.268,0,0,0,2.5,3.24A2.026,2.026,0,0,1,16.1,62.072V87.925A1.989,1.989,0,0,1,14.075,89.95Zm8.1-59.4a8.775,8.775,0,1,1,8.775-8.775A8.758,8.758,0,0,1,22.175,30.55Zm0-13.5A4.725,4.725,0,1,0,26.9,21.775,4.7,4.7,0,0,0,22.175,17.05ZM60.65,21.775Z" transform="translate(0 -1.95)"/><path class="a" d="M60.75,10a6.75,6.75,0,1,0,6.75,6.75A6.75,6.75,0,0,0,60.75,10Z" transform="translate(-14.95 -0.975)"/><path class="c" d="M52.95,24.55a8.775,8.775,0,1,1,8.775-8.775A8.757,8.757,0,0,1,52.95,24.55Zm0-13.5a4.725,4.725,0,1,0,4.725,4.725A4.7,4.7,0,0,0,52.95,11.05Zm20.925,72.9h-10.8V57.962a6.073,6.073,0,0,0,4.05-5.737V40.075c0-3.037-.608-12.825-8.775-12.825H46.74a8.807,8.807,0,0,0-8.707,7.695L35.4,56a2.005,2.005,0,1,0,3.982.472l2.632-21.06A4.674,4.674,0,0,1,46.672,31.3H58.35c4.117,0,4.725,5.467,4.725,8.775v12.15A1.989,1.989,0,0,1,61.05,54.25a1.989,1.989,0,0,0-2.025,2.025V83.95h-4.05V60.325a2.025,2.025,0,1,0-4.05,0V83.95h-4.05V56.275a2.025,2.025,0,1,0-4.05,0V83.95h-10.8a2.025,2.025,0,1,0,0,4.05h41.85a2.025,2.025,0,0,0,0-4.05Z" transform="translate(-7.15)"/></g></svg>