<svg xmlns="http://www.w3.org/2000/svg" width="77.597" height="85.02" viewBox="0 0 77.597 85.02"><defs><style>.a{fill:none;}.b{fill:#444b54;}.c{fill:#a7b2ba;}</style></defs><path class="a" d="M86.549,4H39.316V25.592H30.544L13,32.34V87H44.039V84.971h42.51Z" transform="translate(-10.976 -1.976)"/><path class="b" d="M98.257,86.02A1.988,1.988,0,0,1,96.233,84V5.049H53.049V84A2.024,2.024,0,1,1,49,84V3.024A1.988,1.988,0,0,1,51.024,1H98.257a1.988,1.988,0,0,1,2.024,2.024V84A1.988,1.988,0,0,1,98.257,86.02Z" transform="translate(-22.684 -1)"/><path class="b" d="M63.981,96.427H59.932A1.988,1.988,0,0,1,57.908,94.4V82.257a1.988,1.988,0,0,1,2.024-2.024h4.049A1.988,1.988,0,0,1,66,82.257V94.4A1.988,1.988,0,0,1,63.981,96.427Zm-36.437,0H23.5A1.988,1.988,0,0,1,21.471,94.4V82.257A1.988,1.988,0,0,1,23.5,80.233h4.049a1.988,1.988,0,0,1,2.024,2.024V94.4A1.988,1.988,0,0,1,27.544,96.427Zm-15.519,0A1.988,1.988,0,0,1,10,94.4V41.772a2.066,2.066,0,0,1,1.282-1.889l17.544-6.748a2.03,2.03,0,1,1,1.484,3.779L14.049,43.189V94.4A1.988,1.988,0,0,1,12.024,96.427Z" transform="translate(-10 -11.408)"/><path class="c" d="M91.934,42.053a.856.856,0,0,1-.4-.067.959.959,0,0,1-.4-.135c-.135-.067-.2-.135-.337-.2a1.185,1.185,0,0,1-.337-.27,1.942,1.942,0,0,1-.607-1.417.856.856,0,0,1,.067-.4.959.959,0,0,1,.135-.4c.067-.135.135-.2.2-.337a1.956,1.956,0,0,1,.607-.607c.135-.067.2-.135.337-.2s.27-.067.4-.135a2,2,0,0,1,1.822.54,1.472,1.472,0,0,1,.27.337c.067.135.135.2.2.337s.067.27.135.4c0,.135.067.27.067.4a1.838,1.838,0,0,1-.607,1.417l-.27.27c-.135.067-.2.135-.337.2s-.27.067-.4.135A1.02,1.02,0,0,1,91.934,42.053Zm-13.5-2.024A1.988,1.988,0,0,1,80.463,38h0a1.988,1.988,0,0,1,2.024,2.024h0a1.988,1.988,0,0,1-2.024,2.024h0A1.988,1.988,0,0,1,78.438,40.028Zm-9.447,2.024a2.075,2.075,0,0,1-2.024-2.024.856.856,0,0,1,.067-.4.959.959,0,0,1,.135-.4c.067-.135.135-.2.2-.337a1.185,1.185,0,0,1,.27-.337A2,2,0,0,1,69.464,38a.959.959,0,0,1,.4.135,1.475,1.475,0,0,1,.337.2.527.527,0,0,1,.27.27,1.472,1.472,0,0,1,.27.337c.067.135.135.2.2.337s.067.27.135.4c0,.135.067.27.067.4a1.838,1.838,0,0,1-.607,1.417l-.27.27c-.135.067-.2.135-.337.2s-.27.067-.4.135A1.9,1.9,0,0,0,68.992,42.053ZM91.934,31.931a.856.856,0,0,1-.4-.067.959.959,0,0,1-.4-.135c-.135-.067-.2-.135-.337-.2a1.185,1.185,0,0,1-.337-.27,1.472,1.472,0,0,1-.27-.337c-.067-.135-.135-.2-.2-.337s-.067-.27-.135-.4c0-.135-.067-.27-.067-.4a.856.856,0,0,1,.067-.4.959.959,0,0,1,.135-.4c.067-.135.135-.2.2-.337a1.956,1.956,0,0,1,.607-.607c.135-.067.2-.135.337-.2s.27-.067.4-.135a2,2,0,0,1,1.822.54,1.942,1.942,0,0,1,.607,1.417.856.856,0,0,1-.067.4.959.959,0,0,1-.135.4,1.475,1.475,0,0,1-.2.337,1.184,1.184,0,0,1-.27.337l-.27.27c-.135.067-.2.135-.337.2s-.27.067-.4.135C92.2,31.931,92.068,31.931,91.934,31.931Zm-13.5-2.024a1.988,1.988,0,0,1,2.024-2.024h0a1.988,1.988,0,0,1,2.024,2.024h0a1.988,1.988,0,0,1-2.024,2.024h0A1.988,1.988,0,0,1,78.438,29.907Zm-9.447,2.024a2,2,0,0,1-1.417-3.441,2,2,0,0,1,1.822-.54.959.959,0,0,1,.4.135,1.475,1.475,0,0,1,.337.2.527.527,0,0,1,.27.27,1.942,1.942,0,0,1,.607,1.417,1.838,1.838,0,0,1-.607,1.417l-.27.27c-.135.067-.2.135-.337.2s-.27.067-.4.135A.856.856,0,0,0,68.992,31.931ZM91.934,52.174a.856.856,0,0,1-.4-.067.959.959,0,0,1-.4-.135c-.135-.067-.2-.135-.337-.2a1.185,1.185,0,0,1-.337-.27l-.27-.27c-.067-.135-.135-.2-.2-.337s-.067-.27-.135-.4c0-.135-.067-.27-.067-.4a.856.856,0,0,1,.067-.4.959.959,0,0,1,.135-.4c.067-.135.135-.2.2-.337a1.956,1.956,0,0,1,.607-.607c.135-.067.2-.135.337-.2s.27-.067.4-.135a1.645,1.645,0,0,1,.81,0,.959.959,0,0,1,.4.135,1.475,1.475,0,0,1,.337.2.527.527,0,0,1,.27.27,1.472,1.472,0,0,1,.27.337c.067.135.135.2.2.337s.067.27.135.4c0,.135.067.27.067.4a1.838,1.838,0,0,1-.607,1.417A1.914,1.914,0,0,1,91.934,52.174Zm-13.5-2.024a1.988,1.988,0,0,1,2.024-2.024h0a1.988,1.988,0,0,1,2.024,2.024h0a1.988,1.988,0,0,1-2.024,2.024h0A1.988,1.988,0,0,1,78.438,50.15Zm-9.447,2.024a1.838,1.838,0,0,1-1.417-.607l-.27-.27c-.067-.135-.135-.2-.2-.337s-.067-.27-.135-.4c0-.135-.067-.27-.067-.4a1.838,1.838,0,0,1,.607-1.417,2,2,0,0,1,1.822-.54.959.959,0,0,1,.4.135,1.475,1.475,0,0,1,.337.2.527.527,0,0,1,.27.27,1.942,1.942,0,0,1,.607,1.417.856.856,0,0,1-.067.4.959.959,0,0,1-.135.4,1.475,1.475,0,0,1-.2.337.527.527,0,0,1-.27.27L70,51.9c-.135.067-.2.135-.337.2s-.27.067-.4.135C69.262,52.174,69.127,52.174,68.992,52.174Z" transform="translate(-28.506 -9.664)"/><g transform="translate(38.461 48.566)"><path class="c" d="M91.966,77.04a1.838,1.838,0,0,1-1.417-.607l-.27-.27c-.067-.135-.135-.2-.2-.337s-.067-.27-.135-.4c0-.135-.067-.27-.067-.4a.856.856,0,0,1,.067-.4.959.959,0,0,1,.135-.4c.067-.135.135-.2.2-.337a1.184,1.184,0,0,1,.27-.337,2.082,2.082,0,0,1,2.834,0,1.472,1.472,0,0,1,.27.337c.067.135.135.2.2.337s.067.27.135.4c0,.135.067.27.067.4a.856.856,0,0,1-.067.4.959.959,0,0,1-.135.4,1.476,1.476,0,0,1-.2.337.527.527,0,0,1-.27.27A1.838,1.838,0,0,1,91.966,77.04Zm-13.5-2.024A1.988,1.988,0,0,1,80.5,72.992h0a1.988,1.988,0,0,1,2.024,2.024h0A1.988,1.988,0,0,1,80.5,77.04h0A1.988,1.988,0,0,1,78.471,75.016ZM69.024,77.04A2,2,0,0,1,67.607,73.6a2,2,0,0,1,1.822-.54.959.959,0,0,1,.4.135,1.475,1.475,0,0,1,.337.2.527.527,0,0,1,.27.27,1.942,1.942,0,0,1,.607,1.417,1.838,1.838,0,0,1-.607,1.417l-.27.27c-.135.067-.2.135-.337.2s-.27.067-.4.135A.856.856,0,0,0,69.024,77.04Z" transform="translate(-67 -72.975)"/></g><g transform="translate(38.461 58.663)"><path class="c" d="M91.966,92.029a1.838,1.838,0,0,1-1.417-.607l-.27-.27c-.067-.135-.135-.2-.2-.337s-.067-.27-.135-.4c0-.135-.067-.27-.067-.4a.856.856,0,0,1,.067-.4.959.959,0,0,1,.135-.4c.067-.135.135-.2.2-.337a1.184,1.184,0,0,1,.27-.337,2.082,2.082,0,0,1,2.834,0,1.942,1.942,0,0,1,.607,1.417.856.856,0,0,1-.067.4.959.959,0,0,1-.135.4,1.475,1.475,0,0,1-.2.337.527.527,0,0,1-.27.27A1.5,1.5,0,0,1,91.966,92.029ZM78.471,90A1.988,1.988,0,0,1,80.5,87.98h0A1.988,1.988,0,0,1,82.519,90h0A1.988,1.988,0,0,1,80.5,92.029h0A1.988,1.988,0,0,1,78.471,90Zm-9.447,2.024A2.075,2.075,0,0,1,67,90a.856.856,0,0,1,.067-.4.959.959,0,0,1,.135-.4c.067-.135.135-.2.2-.337a1.185,1.185,0,0,1,.27-.337,2,2,0,0,1,1.822-.54.959.959,0,0,1,.4.135,1.475,1.475,0,0,1,.337.2.527.527,0,0,1,.27.27,1.472,1.472,0,0,1,.27.337c.067.135.135.2.2.337s.067.27.135.4c0,.135.067.27.067.4a1.838,1.838,0,0,1-.607,1.417A2.7,2.7,0,0,1,69.024,92.029Z" transform="translate(-67 -87.939)"/></g><g transform="translate(38.461 68.784)"><path class="c" d="M91.966,107.029a1.838,1.838,0,0,1-1.417-.607l-.27-.27c-.067-.135-.135-.2-.2-.337s-.067-.27-.135-.4c0-.135-.067-.27-.067-.4a.856.856,0,0,1,.067-.4.959.959,0,0,1,.135-.4c.067-.135.135-.2.2-.337a.527.527,0,0,1,.27-.27c.135-.067.2-.2.337-.27s.2-.135.337-.2.27-.067.4-.135a2,2,0,0,1,1.822.54l.27.27c.067.135.135.2.2.337s.067.27.135.4c0,.135.067.27.067.4a.856.856,0,0,1-.067.4.959.959,0,0,1-.135.4,1.475,1.475,0,0,1-.2.337.527.527,0,0,1-.27.27A1.914,1.914,0,0,1,91.966,107.029Zm-22.942,0a1.838,1.838,0,0,1-1.417-.607A1.942,1.942,0,0,1,67,105a1.838,1.838,0,0,1,.607-1.417,2,2,0,0,1,1.822-.54.959.959,0,0,1,.4.135,1.475,1.475,0,0,1,.337.2.527.527,0,0,1,.27.27,1.942,1.942,0,0,1,.607,1.417,1.838,1.838,0,0,1-.607,1.417l-.27.27c-.135.067-.2.135-.337.2s-.27.067-.4.135A.856.856,0,0,0,69.024,107.029Z" transform="translate(-67 -102.939)"/></g><g transform="translate(13.495 38.42)"><path class="c" d="M32.024,62.029A2.075,2.075,0,0,1,30,60a.856.856,0,0,1,.067-.4.959.959,0,0,1,.135-.4c.067-.135.135-.2.2-.337a1.185,1.185,0,0,1,.27-.337,2,2,0,0,1,1.822-.54.959.959,0,0,1,.4.135,1.475,1.475,0,0,1,.337.2,1.185,1.185,0,0,1,.337.27,1.472,1.472,0,0,1,.27.337c.067.135.135.2.2.337s.067.27.135.4c0,.135.067.27.067.4a1.838,1.838,0,0,1-.607,1.417,1.472,1.472,0,0,1-.337.27c-.135.067-.2.135-.337.2s-.27.067-.4.135A1.9,1.9,0,0,0,32.024,62.029Z" transform="translate(-30 -57.939)"/></g><g transform="translate(13.495 48.542)"><path class="c" d="M32.024,77.029A2.075,2.075,0,0,1,30,75a.856.856,0,0,1,.067-.4.959.959,0,0,1,.135-.4c.067-.135.135-.2.2-.337a1.185,1.185,0,0,1,.27-.337,2,2,0,0,1,1.822-.54.959.959,0,0,1,.4.135,1.475,1.475,0,0,1,.337.2,1.185,1.185,0,0,1,.337.27,1.472,1.472,0,0,1,.27.337c.067.135.135.2.2.337s.067.27.135.4c0,.135.067.27.067.4a.856.856,0,0,1-.067.4.959.959,0,0,1-.135.4,1.475,1.475,0,0,1-.2.337.527.527,0,0,1-.27.27,1.472,1.472,0,0,1-.337.27c-.135.067-.2.135-.337.2s-.27.067-.4.135A1.317,1.317,0,0,0,32.024,77.029Z" transform="translate(-30 -72.939)"/></g><g transform="translate(13.428 58.663)"><path class="c" d="M31.992,92.029a1.838,1.838,0,0,1-1.417-.607l-.27-.27c-.067-.135-.135-.2-.2-.337s-.067-.27-.135-.4c0-.135-.067-.27-.067-.4a.856.856,0,0,1,.067-.4.959.959,0,0,1,.135-.4c.067-.135.135-.2.2-.337a1.185,1.185,0,0,1,.27-.337,2,2,0,0,1,1.822-.54.959.959,0,0,1,.4.135,1.475,1.475,0,0,1,.337.2,1.185,1.185,0,0,1,.337.27,1.472,1.472,0,0,1,.27.337c.067.135.135.2.2.337s.067.27.135.4c0,.135.067.27.067.4a.856.856,0,0,1-.067.4.959.959,0,0,1-.135.4,1.475,1.475,0,0,1-.2.337.527.527,0,0,1-.27.27,1.472,1.472,0,0,1-.337.27c-.135.067-.2.135-.337.2s-.27.067-.4.135A.856.856,0,0,0,31.992,92.029Z" transform="translate(-29.9 -87.939)"/></g></svg>