<svg xmlns="http://www.w3.org/2000/svg" width="85.535" height="55.398" viewBox="0 0 85.535 55.398"><defs><style>.a{fill:none;}.b{fill:#d81222;}.c{fill:#cb2e25;}.d{fill:#444b54;}</style></defs><path class="a" d="M47.324,84.534A25.159,25.159,0,0,0,25.462,71.849h0A25.08,25.08,0,0,0,3.6,84.6l.067,2.024H47.257ZM25.462,40A11.808,11.808,0,1,0,37.27,51.808,11.808,11.808,0,0,0,25.462,40Z" transform="translate(-1.588 -31.228)"/><path class="b" d="M24.492,64.6A13.814,13.814,0,0,1,23.548,37a2.029,2.029,0,0,1,.27,4.049,9.761,9.761,0,0,0,.675,19.5,9.894,9.894,0,0,0,4.993-1.35,2.014,2.014,0,1,1,2.092,3.441A13.834,13.834,0,0,1,24.492,64.6ZM2.63,85.581a1.9,1.9,0,0,1-1.012-.27,2.049,2.049,0,0,1-.742-2.767A27.139,27.139,0,0,1,17.2,69.791a2.03,2.03,0,1,1,1.08,3.914,23.536,23.536,0,0,0-13.9,10.864A1.885,1.885,0,0,1,2.63,85.581Z" transform="translate(-0.618 -30.251)"/><g transform="translate(39.798 6.744)"><path class="a" d="M59.6,84.534A25.159,25.159,0,0,1,81.462,71.849h0A25.08,25.08,0,0,1,103.324,84.6l-.067,2.024H59.667ZM81.462,40A11.808,11.808,0,1,0,93.27,51.808,11.808,11.808,0,0,0,81.462,40Z" transform="translate(-59.6 -37.972)"/><path class="c" d="M88.145,64.6a13.418,13.418,0,0,1-7.017-1.957A2.014,2.014,0,1,1,83.219,59.2a9.894,9.894,0,0,0,4.993,1.35,9.761,9.761,0,0,0,.675-19.5A2.029,2.029,0,1,1,89.157,37a13.814,13.814,0,0,1-1.012,27.6Zm21.862,20.985a1.957,1.957,0,0,1-1.754-1.012A23.147,23.147,0,0,0,94.353,73.7a2.03,2.03,0,1,1,1.08-3.914,27.525,27.525,0,0,1,16.329,12.753,2.066,2.066,0,0,1-.742,2.767A1.9,1.9,0,0,1,110.007,85.581Z" transform="translate(-66.283 -36.994)"/></g><g transform="translate(15.722 0)"><path class="a" d="M76.967,81.012A28.82,28.82,0,0,0,51.934,66.437h0A28.82,28.82,0,0,0,26.9,81.012l.067,2.294H76.9ZM51.934,30a13.5,13.5,0,1,0,13.5,13.5A13.5,13.5,0,0,0,51.934,30Z" transform="translate(-24.888 -27.976)"/><path class="d" d="M50.964,58.039A15.519,15.519,0,1,1,66.483,42.519,15.522,15.522,0,0,1,50.964,58.039Zm0-26.99A11.471,11.471,0,1,0,62.435,42.519,11.461,11.461,0,0,0,50.964,31.049ZM25.93,82.33a1.9,1.9,0,0,1-1.012-.27,2.049,2.049,0,0,1-.742-2.767,30.813,30.813,0,0,1,53.576,0,2.025,2.025,0,1,1-3.509,2.024,26.76,26.76,0,0,0-46.558,0A1.885,1.885,0,0,1,25.93,82.33Z" transform="translate(-23.918 -27)"/></g></svg>