<svg xmlns="http://www.w3.org/2000/svg" width="54.091" height="55.33" viewBox="0 0 54.091 55.33"><defs><style>.a{fill:none;}.b{fill:#444b54;}</style></defs><path class="a" d="M76.967,81.012A28.82,28.82,0,0,0,51.934,66.437h0A28.82,28.82,0,0,0,26.9,81.012l.067,2.294H76.9ZM51.934,30a13.5,13.5,0,1,0,13.5,13.5A13.5,13.5,0,0,0,51.934,30Z" transform="translate(-24.888 -27.976)"/><path class="b" d="M50.964,58.039A15.519,15.519,0,1,1,66.483,42.519,15.522,15.522,0,0,1,50.964,58.039Zm0-26.99A11.471,11.471,0,1,0,62.435,42.519,11.461,11.461,0,0,0,50.964,31.049ZM25.93,82.33a1.9,1.9,0,0,1-1.012-.27,2.049,2.049,0,0,1-.742-2.767,30.813,30.813,0,0,1,53.576,0,2.025,2.025,0,1,1-3.509,2.024,26.76,26.76,0,0,0-46.558,0A1.885,1.885,0,0,1,25.93,82.33Z" transform="translate(-23.918 -27)"/></svg>