<svg xmlns="http://www.w3.org/2000/svg" width="85.518" height="94.365" viewBox="0 0 85.518 94.365"><defs><style>.a{fill:#fff;}.b{fill:#cadbea;}.c{fill:#818a91;}</style></defs><g transform="translate(24.328 28.752)"><circle class="a" cx="18.5" cy="18.5" r="18.5" transform="translate(-0.255 0.248)"/></g><g transform="translate(0)"><g transform="translate(35.387 2.212)"><circle class="a" cx="7.5" cy="7.5" r="7.5" transform="translate(-0.314 -0.212)"/></g><g transform="translate(35.387 77.409)"><circle class="a" cx="7.5" cy="7.5" r="7.5" transform="translate(-0.314 -0.409)"/></g><g transform="translate(68.562 58.978)"><circle class="a" cx="7.5" cy="7.5" r="7.5" transform="translate(-0.489 0.022)"/></g><g transform="translate(68.562 20.642)"><ellipse class="a" cx="7.5" cy="7" rx="7.5" ry="7" transform="translate(-0.489 0.358)"/></g><g transform="translate(2.212 20.642)"><ellipse class="a" cx="7.5" cy="7" rx="7.5" ry="7" transform="translate(-0.138 0.358)"/></g><g transform="translate(2.212 58.978)"><circle class="a" cx="7.5" cy="7.5" r="7.5" transform="translate(-0.138 0.022)"/></g><g transform="translate(7.372 15.127)"><g transform="translate(0 27.633)"><path class="b" d="M18.212,66.847A2.172,2.172,0,0,1,16,64.635V60.212a2.212,2.212,0,1,1,4.423,0v4.423A2.218,2.218,0,0,1,18.212,66.847Z" transform="translate(-16 -58)"/></g><g transform="translate(14.684 57.504)"><path class="b" d="M41.95,105.14a2.08,2.08,0,0,1-1.106-.295l-3.834-2.212A2.213,2.213,0,1,1,39.222,98.8l3.834,2.212a2.257,2.257,0,0,1,.811,3.023A2.222,2.222,0,0,1,41.95,105.14Z" transform="translate(-35.918 -98.518)"/></g><g transform="translate(47.859 57.504)"><path class="b" d="M83.116,105.14a2.222,2.222,0,0,1-1.917-1.106,2.257,2.257,0,0,1,.811-3.023L85.844,98.8a2.213,2.213,0,1,1,2.212,3.834l-3.834,2.212A2.08,2.08,0,0,1,83.116,105.14Z" transform="translate(-80.918 -98.518)"/></g><g transform="translate(66.35 27.633)"><path class="b" d="M108.212,66.847A2.172,2.172,0,0,1,106,64.635V60.212a2.212,2.212,0,1,1,4.423,0v4.423A2.172,2.172,0,0,1,108.212,66.847Z" transform="translate(-106 -58)"/></g><g transform="translate(47.859)"><path class="b" d="M86.95,27.14a2.08,2.08,0,0,1-1.106-.295l-3.834-2.212A2.213,2.213,0,0,1,84.222,20.8l3.834,2.212a2.257,2.257,0,0,1,.811,3.023A2.138,2.138,0,0,1,86.95,27.14Z" transform="translate(-80.918 -20.518)"/></g><g transform="translate(14.684)"><path class="b" d="M38.116,27.14A2.222,2.222,0,0,1,36.2,26.034a2.257,2.257,0,0,1,.811-3.023L40.844,20.8a2.213,2.213,0,1,1,2.212,3.834l-3.834,2.212A2.08,2.08,0,0,1,38.116,27.14Z" transform="translate(-35.918 -20.518)"/></g></g><g transform="translate(33.175)"><path class="b" d="M60.584,19.168a9.584,9.584,0,1,1,9.584-9.584A9.565,9.565,0,0,1,60.584,19.168Zm0-14.745a5.161,5.161,0,1,0,5.161,5.161A5.129,5.129,0,0,0,60.584,4.423Z" transform="translate(-51)"/></g><g transform="translate(33.175 75.197)"><path class="b" d="M60.584,121.168a9.584,9.584,0,1,1,9.584-9.584A9.565,9.565,0,0,1,60.584,121.168Zm0-14.745a5.161,5.161,0,1,0,5.161,5.161A5.129,5.129,0,0,0,60.584,106.423Z" transform="translate(-51 -102)"/></g><g transform="translate(66.35 56.766)"><path class="b" d="M105.584,96.168a9.584,9.584,0,1,1,9.584-9.584A9.565,9.565,0,0,1,105.584,96.168Zm0-14.745a5.161,5.161,0,1,0,5.161,5.161A5.129,5.129,0,0,0,105.584,81.423Z" transform="translate(-96 -77)"/></g><g transform="translate(66.35 18.431)"><path class="b" d="M105.584,44.168a9.584,9.584,0,1,1,9.584-9.584A9.565,9.565,0,0,1,105.584,44.168Zm0-14.745a5.161,5.161,0,1,0,5.161,5.161A5.129,5.129,0,0,0,105.584,29.423Z" transform="translate(-96 -25)"/></g><g transform="translate(0 18.431)"><path class="b" d="M15.584,44.168a9.584,9.584,0,1,1,9.584-9.584A9.565,9.565,0,0,1,15.584,44.168Zm0-14.745a5.161,5.161,0,1,0,5.161,5.161A5.129,5.129,0,0,0,15.584,29.423Z" transform="translate(-6 -25)"/></g><g transform="translate(0 56.766)"><path class="b" d="M15.584,96.168a9.584,9.584,0,1,1,9.584-9.584A9.565,9.565,0,0,1,15.584,96.168Zm0-14.745a5.161,5.161,0,1,0,5.161,5.161A5.129,5.129,0,0,0,15.584,81.423Z" transform="translate(-6 -77)"/></g><g transform="translate(22.117 26.54)"><path class="c" d="M56.642,77.285A20.642,20.642,0,1,1,77.285,56.642,20.7,20.7,0,0,1,56.642,77.285Zm0-36.861A16.219,16.219,0,1,0,72.861,56.642,16.267,16.267,0,0,0,56.642,40.423Z" transform="translate(-36 -36)"/></g></g></svg>