<svg xmlns="http://www.w3.org/2000/svg" width="85.518" height="85.961" viewBox="0 0 85.518 85.961"><defs><style>.a{fill:#fff;}.b{fill:#cadbea;}.c{fill:#818a91;}</style></defs><g transform="translate(2.212 2.212)"><path class="a" d="M9,49.547A40.447,40.447,0,1,0,35.835,11.359,40.524,40.524,0,0,0,9,49.547Z" transform="translate(-9 -9)"/></g><g transform="translate(50.466 44.881)"><path class="b" d="M74.709,71.391c-1.106,1.548,1.548,4.792,4.718,7.151,2.8,2.064,5.972,3.539,7.667,2.8,6.119-2.875,10.1-8.847,10.1-11.058s-2.875-6.488-12.68.147C81.786,72.423,76.847,68.442,74.709,71.391Z" transform="translate(-74.454 -66.878)"/></g><g transform="translate(43.342 4.497)"><path class="b" d="M103.944,42.179A40.745,40.745,0,0,0,77.92,12.174a.257.257,0,0,1-.147-.074l.147,7.815A5.088,5.088,0,0,1,74.9,24.559c-4.055,1.769-8.109.811-9.805,5.455-1.4,3.465,2.285,12.975,6.782,12.975,5.677,0,8.4-11.427,10.1-11.427,1.106,0,2.8,3.465,4.792,6.045a6.915,6.915,0,0,0,5.6,2.728h3.76Z" transform="translate(-64.791 -12.1)"/></g><g transform="translate(2.212 32.777)"><path class="b" d="M41.888,68.183c-.295-2.728,3.244-4.792,5.382-6.93s2.8-5.455,1.7-7.372c-3.539-6.414-11.943-3.023-12.754,3.686a17.493,17.493,0,0,1-.811,3.391" transform="translate(-15.937 -50.459)"/><path class="b" d="M26.988,69.818a1.568,1.568,0,0,0-2.58-.369h0c-2.064,2.064-6.119.958-7.225-2.064-1.253-3.391,3.1-4.645,2.433-8.994-.147-1.18-1.4-1.769-2.949-1.991l-7.3.295A40.908,40.908,0,0,0,9,62a40.041,40.041,0,0,0,8.036,24.181s5.824,5.455,5.75,6.266h0a8.95,8.95,0,0,0,10.1,1.18c1.4-.737,2.8-1.7,4.423-2.728a6.889,6.889,0,0,0,1.327-1.18,1.681,1.681,0,0,0,.074-2.212c-.221-.295-.516-.59-.737-.885A79.8,79.8,0,0,1,26.988,69.818Z" transform="translate(-9 -52.02)"/></g><g transform="translate(17.334 27.728)"><path class="c" d="M79.929,101.844c-8.92,0-21.748-8.036-33.249-21.527-11.058-12.975-15.629-28.088-17.1-33.986A2.2,2.2,0,0,1,33.853,45.3c1.106,4.35,5.382,19.61,16.219,32.291,14.007,16.44,28.9,22.928,33.986,18.652,2.138-1.769,2.728-5.6,1.622-10.764l-.442-2.138a2.212,2.212,0,0,1,4.35-.811l.369,2.064c1.474,6.856.369,12.091-3.1,14.966A10.473,10.473,0,0,1,79.929,101.844Z" transform="translate(-29.512 -43.612)"/></g><g transform="translate(8.626 5.898)"><path class="c" d="M19.912,28.8a2.212,2.212,0,0,1-1.548-3.76l7.372-7.372a2.189,2.189,0,1,1,3.1,3.1L21.46,28.132A2.008,2.008,0,0,1,19.912,28.8Z" transform="translate(-17.7 -17)"/></g><g transform="translate(15.998 5.898)"><path class="c" d="M37.284,28.8a2.122,2.122,0,0,1-1.548-.664L28.364,20.76a2.189,2.189,0,1,1,3.1-3.1l7.372,7.372a2.138,2.138,0,0,1,0,3.1A2.008,2.008,0,0,1,37.284,28.8Z" transform="translate(-27.7 -17)"/></g><g transform="translate(0 23.008)"><path class="c" d="M48.759,99.719A42.79,42.79,0,0,1,6,56.96a42.231,42.231,0,0,1,4.2-18.5,2.209,2.209,0,1,1,3.981,1.917,37.7,37.7,0,0,0-3.76,16.588A38.354,38.354,0,0,0,48.759,95.3a2.212,2.212,0,0,1,0,4.423Z" transform="translate(-6 -37.209)"/></g><g transform="translate(26.844 0)"><path class="c" d="M82.8,83.335a2.2,2.2,0,0,1-1.769-.885,2.228,2.228,0,0,1,.442-3.1A38.361,38.361,0,0,0,58.327,10.423a39.02,39.02,0,0,0-12.975,2.212,2.192,2.192,0,1,1-1.474-4.128A41.978,41.978,0,0,1,58.327,6a42.784,42.784,0,0,1,25.8,76.893A2.378,2.378,0,0,1,82.8,83.335Z" transform="translate(-42.412 -6)"/></g><g transform="translate(18.209 9.353) rotate(45)"><path class="c" d="M9.584,11.8a2.122,2.122,0,0,1-1.548-.664L.664,3.76a2.138,2.138,0,0,1,0-3.1,2.138,2.138,0,0,1,3.1,0l7.372,7.372a2.138,2.138,0,0,1,0,3.1A2.008,2.008,0,0,1,9.584,11.8Z" transform="translate(0 0)"/></g></svg>