<svg xmlns="http://www.w3.org/2000/svg" width="92.819" height="92.891" viewBox="0 0 92.819 92.891"><defs><style>.a,.d{fill:#fff;}.b{fill:#818a91;}.c{fill:#cadbea;}.d{stroke:#cadbea;stroke-width:5px;}</style></defs><g transform="translate(0)"><g transform="translate(68.562 68.562)"><circle class="a" cx="11" cy="11" r="11" transform="translate(0.438 0.329)"/></g><g transform="translate(2.212 2.212)"><path class="a" d="M58.555,92.467H11.372A7.394,7.394,0,0,1,4,85.095V11.372A7.394,7.394,0,0,1,11.372,4h39.81A14.788,14.788,0,0,1,65.927,18.745v66.35A7.394,7.394,0,0,1,58.555,92.467Z" transform="translate(-4 -4)"/></g><g transform="translate(0 0)"><path class="b" d="M43.022,93.891H10.584A9.565,9.565,0,0,1,1,84.307V10.584A9.565,9.565,0,0,1,10.584,1h39.81A16.99,16.99,0,0,1,67.35,17.956a2.172,2.172,0,0,1-2.212,2.212h0a2.172,2.172,0,0,1-2.212-2.212A12.586,12.586,0,0,0,50.394,5.423H10.584a5.129,5.129,0,0,0-5.161,5.161V84.307a5.129,5.129,0,0,0,5.161,5.161H43.022a2.212,2.212,0,1,1,0,4.423Z" transform="translate(-1 -1)"/></g><g transform="translate(61.927 24.328)"><path class="b" d="M87.212,63.489A2.172,2.172,0,0,1,85,61.277V36.212A2.172,2.172,0,0,1,87.212,34h0a2.172,2.172,0,0,1,2.212,2.212V61.277a2.218,2.218,0,0,1-2.212,2.212Z" transform="translate(-85 -34)"/></g><g transform="translate(47.182 0)"><path class="b" d="M81.956,20.168H74.584A9.565,9.565,0,0,1,65,10.584V3.212a2.212,2.212,0,1,1,4.423,0v7.372a5.129,5.129,0,0,0,5.161,5.161h7.372a2.212,2.212,0,0,1,0,4.423Z" transform="translate(-65 -1)"/></g><g transform="translate(47.109 58.978)"><circle class="a" cx="15" cy="15" r="15" transform="translate(1.891 1.913)"/><path class="c" d="M105.3,91.026a2.212,2.212,0,0,0-2.654,3.539,8.7,8.7,0,0,1,3.539,7.077,8.873,8.873,0,0,1-8.847,8.847,8.693,8.693,0,0,1-3.391-.664,16.943,16.943,0,1,0-12.091,5.087,17.19,17.19,0,0,0,8.257-2.138,13.272,13.272,0,0,0,20.495-11.132A12.8,12.8,0,0,0,105.3,91.026Zm-35.9,6.93A12.533,12.533,0,1,1,81.93,110.489,12.522,12.522,0,0,1,69.4,97.956Z" transform="translate(-64.9 -81)"/></g></g><path class="c" d="M45.044,86.476a1.625,1.625,0,0,1-1.6-1.543c-.057,0-.057,0-.114-.057A5.233,5.233,0,0,1,41.5,83.847a4.748,4.748,0,0,1-1.257-1.829,1.463,1.463,0,0,1,0-1.2,1.576,1.576,0,0,1,.857-.857,1.231,1.231,0,0,1,.629-.114,1.7,1.7,0,0,1,1.486.972,1.74,1.74,0,0,0,.514.743,1.362,1.362,0,0,0,.629.343,3.507,3.507,0,0,0,1.886,0,1.994,1.994,0,0,0,.514-.343,1.186,1.186,0,0,0,.343-.572,2.222,2.222,0,0,0,.114-.857,1.933,1.933,0,0,0-.171-.857,1.121,1.121,0,0,0-.514-.514,2.986,2.986,0,0,0-.857-.4c-.457-.114-.857-.286-1.315-.4a7.649,7.649,0,0,1-1.486-.514,4.344,4.344,0,0,1-1.486-.914A4.757,4.757,0,0,1,40.3,75.045a4.918,4.918,0,0,1-.4-2.172,4.658,4.658,0,0,1,.343-1.772,4.645,4.645,0,0,1,2.629-2.743c.229-.057.4-.171.629-.229A1.61,1.61,0,0,1,45.1,66.7a1.654,1.654,0,0,1,1.6,1.429c.229.057.457.171.686.229a4.128,4.128,0,0,1,1.658,1.257,6.338,6.338,0,0,1,.972,1.715,1.462,1.462,0,0,1-.114,1.2,1.78,1.78,0,0,1-.914.8,1.582,1.582,0,0,1-.514.057,1.647,1.647,0,0,1-1.543-1.143,1.362,1.362,0,0,0-.343-.629,1.245,1.245,0,0,0-.514-.4,2.278,2.278,0,0,0-.972-.171,2.769,2.769,0,0,0-1.029.171,1.459,1.459,0,0,0-.572.4l-.343.514a2.869,2.869,0,0,0-.114.686,2.791,2.791,0,0,0,.114.8.729.729,0,0,0,.286.4,1.9,1.9,0,0,0,.572.343,9.071,9.071,0,0,0,1.143.4c.457.114.972.286,1.429.4a5.9,5.9,0,0,1,1.715.8A4.793,4.793,0,0,1,49.788,77.5a4.969,4.969,0,0,1,.629,2.515,6.441,6.441,0,0,1-.286,1.829,5.58,5.58,0,0,1-.972,1.715,4.644,4.644,0,0,1-1.715,1.2,3.7,3.7,0,0,1-.743.229A1.758,1.758,0,0,1,45.044,86.476Zm-.114-2.743c.057.057.057.114.114.171.057-.057.057-.114.114-.171Zm.114-14.46c-.057.057-.057.114-.114.171h.229C45.1,69.386,45.1,69.329,45.044,69.272Z" transform="translate(-31.127 -47.753)"/><g transform="translate(24.328 22.117)"><g transform="translate(0 0)"><ellipse class="d" cx="9.5" cy="15" rx="9.5" ry="15" transform="translate(-0.328 -0.226)"/></g></g></svg>